<svg xmlns="http://www.w3.org/2000/svg" width="620" height="424" viewBox="0 0 620 424">
  <rect width="620" height="424" fill="#FFFFFF"/>
  <rect x="10" y="18" width="190" height="52" rx="7" fill="#FFFFFF" stroke="#2E7D32" stroke-width="1.3"/>
  <path d="M17,18 h-3 a4,4 0 0 0 -4,4 v44 a4,4 0 0 0 4,4 h3 z" fill="#2E7D32"/>
  <text x="105.0" y="42.0" font-family="Sarabun, 'Noto Sans Thai', 'Helvetica Neue', sans-serif" font-size="13" fill="#1B2733" text-anchor="middle" font-weight="600">Admin</text>
  <text x="105.0" y="59.0" font-family="Sarabun, 'Noto Sans Thai', 'Helvetica Neue', sans-serif" font-size="11" fill="#5B6B7A" text-anchor="middle">ทุกสถานี ทุกหน้า</text>
  <rect x="215" y="18" width="190" height="52" rx="7" fill="#FFFFFF" stroke="#2563A8" stroke-width="1.3"/>
  <path d="M222,18 h-3 a4,4 0 0 0 -4,4 v44 a4,4 0 0 0 4,4 h3 z" fill="#2563A8"/>
  <text x="310.0" y="42.0" font-family="Sarabun, 'Noto Sans Thai', 'Helvetica Neue', sans-serif" font-size="13" fill="#1B2733" text-anchor="middle" font-weight="600">User</text>
  <text x="310.0" y="59.0" font-family="Sarabun, 'Noto Sans Thai', 'Helvetica Neue', sans-serif" font-size="11" fill="#5B6B7A" text-anchor="middle">เฉพาะสถานีที่ได้รับสิทธิ์</text>
  <rect x="420" y="18" width="190" height="52" rx="7" fill="#FFFFFF" stroke="#5B6B7A" stroke-width="1.3"/>
  <path d="M427,18 h-3 a4,4 0 0 0 -4,4 v44 a4,4 0 0 0 4,4 h3 z" fill="#5B6B7A"/>
  <text x="515.0" y="42.0" font-family="Sarabun, 'Noto Sans Thai', 'Helvetica Neue', sans-serif" font-size="13" fill="#1B2733" text-anchor="middle" font-weight="600">Guest</text>
  <text x="515.0" y="59.0" font-family="Sarabun, 'Noto Sans Thai', 'Helvetica Neue', sans-serif" font-size="11" fill="#5B6B7A" text-anchor="middle">อ่านอย่างเดียว</text>
  <line x1="10" y1="88" x2="610" y2="88" stroke="#C9D6E2" stroke-width="1"/>
  <rect x="210" y="102" width="200" height="42" rx="7" fill="#FFFFFF" stroke="#5B6B7A" stroke-width="1.3"/>
  <path d="M217,102 h-3 a4,4 0 0 0 -4,4 v34 a4,4 0 0 0 4,4 h3 z" fill="#5B6B7A"/>
  <text x="310.0" y="121.0" font-family="Sarabun, 'Noto Sans Thai', 'Helvetica Neue', sans-serif" font-size="13" fill="#1B2733" text-anchor="middle" font-weight="600">คำขอเขียนข้อมูล</text>
  <text x="310.0" y="138.0" font-family="Menlo, Consolas, monospace" font-size="10.5" fill="#5B6B7A" text-anchor="middle">POST /faults</text>
  <line x1="310" y1="144" x2="310" y2="154" stroke="#5B6B7A" stroke-width="1.6"/>
  <polygon points="310,162 305.2,153.0 314.8,153.0" fill="#5B6B7A"/>
  <rect x="150" y="162" width="320" height="52" rx="7" fill="#E4F3F0" stroke="#0E7C6B" stroke-width="1.3"/>
  <text x="164" y="184" font-family="Sarabun, 'Noto Sans Thai', 'Helvetica Neue', sans-serif" font-size="12" fill="#1B2733" text-anchor="start" font-weight="600">ชั้นที่ 1 — ระดับ endpoint</text>
  <text x="164" y="201" font-family="Menlo, Consolas, monospace" font-size="10.5" fill="#0E7C6B" text-anchor="start">Depends(require_admin)</text>
  <line x1="470" y1="188" x2="548" y2="188" stroke="#C0392B" stroke-width="1.3"/>
  <polygon points="556,188 547.0,183.2 547.0,192.8" fill="#C0392B"/>
  <rect x="560" y="177" width="36.9" height="22" rx="5" fill="#FBEAE7" stroke="#C0392B" stroke-width="1"/>
  <text x="569" y="192.0" font-family="Menlo, Consolas, monospace" font-size="11" fill="#C0392B" text-anchor="start">403</text>
  <line x1="310" y1="214" x2="310" y2="220" stroke="#5B6B7A" stroke-width="1.6"/>
  <polygon points="310,228 305.2,219.0 314.8,219.0" fill="#5B6B7A"/>
  <rect x="150" y="228" width="320" height="52" rx="7" fill="#E4F3F0" stroke="#0E7C6B" stroke-width="1.3"/>
  <text x="164" y="250" font-family="Sarabun, 'Noto Sans Thai', 'Helvetica Neue', sans-serif" font-size="12" fill="#1B2733" text-anchor="start" font-weight="600">ชั้นที่ 2 — ระดับรายการข้อมูล</text>
  <text x="164" y="267" font-family="Menlo, Consolas, monospace" font-size="10.5" fill="#0E7C6B" text-anchor="start">_require_write_station(user, station_id)</text>
  <line x1="470" y1="254" x2="548" y2="254" stroke="#C0392B" stroke-width="1.3"/>
  <polygon points="556,254 547.0,249.2 547.0,258.8" fill="#C0392B"/>
  <rect x="560" y="243" width="36.9" height="22" rx="5" fill="#FBEAE7" stroke="#C0392B" stroke-width="1"/>
  <text x="569" y="258.0" font-family="Menlo, Consolas, monospace" font-size="11" fill="#C0392B" text-anchor="start">403</text>
  <line x1="310" y1="280" x2="310" y2="286" stroke="#5B6B7A" stroke-width="1.6"/>
  <polygon points="310,294 305.2,285.0 314.8,285.0" fill="#5B6B7A"/>
  <rect x="150" y="294" width="320" height="52" rx="7" fill="#E4F3F0" stroke="#0E7C6B" stroke-width="1.3"/>
  <text x="164" y="316" font-family="Sarabun, 'Noto Sans Thai', 'Helvetica Neue', sans-serif" font-size="12" fill="#1B2733" text-anchor="start" font-weight="600">ชั้นที่ 3 — ที่มาของข้อมูล</text>
  <text x="164" y="333" font-family="Menlo, Consolas, monospace" font-size="10.5" fill="#0E7C6B" text-anchor="start">created_by = current_user.id</text>
  <text x="140" y="318" font-family="Sarabun, 'Noto Sans Thai', 'Helvetica Neue', sans-serif" font-size="10.5" fill="#C0392B" text-anchor="end" font-weight="600">ห้ามรับ id ผู้ใช้จาก payload</text>
  <line x1="146" y1="314" x2="150" y2="314" stroke="#C0392B" stroke-width="1.2"/>
  <line x1="146" y1="314" x2="142" y2="314" stroke="#C0392B" stroke-width="1.2"/>
  <polygon points="150,314 141.0,309.2 141.0,318.8" fill="#C0392B"/>
  <line x1="310" y1="342" x2="310" y2="350" stroke="#5B6B7A" stroke-width="1.6"/>
  <polygon points="310,358 305.2,349.0 314.8,349.0" fill="#5B6B7A"/>
  <rect x="210" y="358" width="200" height="42" rx="7" fill="#FFFFFF" stroke="#2E7D32" stroke-width="1.3"/>
  <path d="M217,358 h-3 a4,4 0 0 0 -4,4 v34 a4,4 0 0 0 4,4 h3 z" fill="#2E7D32"/>
  <text x="310.0" y="384.0" font-family="Sarabun, 'Noto Sans Thai', 'Helvetica Neue', sans-serif" font-size="13" fill="#1B2733" text-anchor="middle" font-weight="600">บันทึกลงฐานข้อมูล</text>
  <text x="10" y="416" font-family="Sarabun, 'Noto Sans Thai', 'Helvetica Neue', sans-serif" font-size="10.5" fill="#5B6B7A" text-anchor="start">ฝั่งหน้าเว็บ (utils/permissions.ts) เป็นแค่การซ่อนปุ่ม ของจริงอยู่ฝั่ง backend เสมอ</text>
</svg>
