<svg xmlns="http://www.w3.org/2000/svg" width="620" height="268" viewBox="0 0 620 268">
  <rect width="620" height="268" fill="#FFFFFF"/>
  <text x="10" y="22" font-family="Sarabun, 'Noto Sans Thai', 'Helvetica Neue', sans-serif" font-size="11" fill="#5B6B7A" text-anchor="start" font-weight="600">ใครเข้ามา</text>
  <text x="150" y="22" font-family="Sarabun, 'Noto Sans Thai', 'Helvetica Neue', sans-serif" font-size="11" fill="#5B6B7A" text-anchor="start" font-weight="600">ผ่านอะไร</text>
  <rect x="10" y="34" width="600" height="62" rx="8" fill="#F0EBF8" stroke="#7A5AA8" stroke-width="1.2"/>
  <circle cx="34" cy="65" r="14" fill="#7A5AA8"/>
  <text x="34" y="69.5" font-family="Sarabun, 'Noto Sans Thai', 'Helvetica Neue', sans-serif" font-size="12" fill="#FFFFFF" text-anchor="middle" font-weight="700">A</text>
  <text x="56" y="60" font-family="Sarabun, 'Noto Sans Thai', 'Helvetica Neue', sans-serif" font-size="12" fill="#1B2733" text-anchor="start" font-weight="600">ESP32 ในสวน</text>
  <rect x="150" y="46" width="140" height="26" rx="5" fill="#FFFFFF" stroke="#7A5AA8" stroke-width="1"/>
  <text x="220" y="63" font-family="Sarabun, 'Noto Sans Thai', 'Helvetica Neue', sans-serif" font-size="11" fill="#1B2733" text-anchor="middle">Apache + PHP เดิม</text>
  <line x1="306" y1="59" x2="318" y2="59" stroke="#7A5AA8" stroke-width="1.3"/>
  <polygon points="326,59 317.0,54.2 317.0,63.8" fill="#7A5AA8"/>
  <rect x="332" y="46" width="74" height="26" rx="5" fill="#FBF0DC" stroke="#8A5A00" stroke-width="1"/>
  <text x="369" y="63" font-family="Sarabun, 'Noto Sans Thai', 'Helvetica Neue', sans-serif" font-size="11" fill="#8A5A00" text-anchor="middle">ฐานข้อมูล</text>
  <text x="56" y="84" font-family="Sarabun, 'Noto Sans Thai', 'Helvetica Neue', sans-serif" font-size="10.5" fill="#5B6B7A" text-anchor="start">ยืนยันตัวตน:</text>
  <text x="126" y="84" font-family="Menlo, Consolas, monospace" font-size="10.5" fill="#7A5AA8" text-anchor="start">ไม่มี — ตาม design ของอุปกรณ์สนาม</text>
  <rect x="10" y="106" width="600" height="62" rx="8" fill="#E8F0FA" stroke="#2563A8" stroke-width="1.2"/>
  <circle cx="34" cy="137" r="14" fill="#2563A8"/>
  <text x="34" y="141.5" font-family="Sarabun, 'Noto Sans Thai', 'Helvetica Neue', sans-serif" font-size="12" fill="#FFFFFF" text-anchor="middle" font-weight="700">B</text>
  <text x="56" y="132" font-family="Sarabun, 'Noto Sans Thai', 'Helvetica Neue', sans-serif" font-size="12" fill="#1B2733" text-anchor="start" font-weight="600">เบราว์เซอร์</text>
  <rect x="150" y="118" width="140" height="26" rx="5" fill="#FFFFFF" stroke="#2563A8" stroke-width="1"/>
  <text x="220" y="135" font-family="Sarabun, 'Noto Sans Thai', 'Helvetica Neue', sans-serif" font-size="11" fill="#1B2733" text-anchor="middle">Next.js :3000</text>
  <line x1="290" y1="131" x2="298" y2="131" stroke="#2563A8" stroke-width="1.3"/>
  <polygon points="306,131 297.0,126.2 297.0,135.8" fill="#2563A8"/>
  <rect x="306" y="118" width="140" height="26" rx="5" fill="#FFFFFF" stroke="#2563A8" stroke-width="1"/>
  <text x="376" y="135" font-family="Sarabun, 'Noto Sans Thai', 'Helvetica Neue', sans-serif" font-size="11" fill="#1B2733" text-anchor="middle">FastAPI :8000</text>
  <line x1="462" y1="131" x2="474" y2="131" stroke="#2563A8" stroke-width="1.3"/>
  <polygon points="482,131 473.0,126.2 473.0,135.8" fill="#2563A8"/>
  <rect x="488" y="118" width="74" height="26" rx="5" fill="#FBF0DC" stroke="#8A5A00" stroke-width="1"/>
  <text x="525" y="135" font-family="Sarabun, 'Noto Sans Thai', 'Helvetica Neue', sans-serif" font-size="11" fill="#8A5A00" text-anchor="middle">ฐานข้อมูล</text>
  <text x="56" y="156" font-family="Sarabun, 'Noto Sans Thai', 'Helvetica Neue', sans-serif" font-size="10.5" fill="#5B6B7A" text-anchor="start">ยืนยันตัวตน:</text>
  <text x="126" y="156" font-family="Menlo, Consolas, monospace" font-size="10.5" fill="#2563A8" text-anchor="start">JWT — Authorization: Bearer</text>
  <rect x="10" y="178" width="600" height="62" rx="8" fill="#E4F3F0" stroke="#0E7C6B" stroke-width="1.2"/>
  <circle cx="34" cy="209" r="14" fill="#0E7C6B"/>
  <text x="34" y="213.5" font-family="Sarabun, 'Noto Sans Thai', 'Helvetica Neue', sans-serif" font-size="12" fill="#FFFFFF" text-anchor="middle" font-weight="700">C</text>
  <text x="56" y="204" font-family="Sarabun, 'Noto Sans Thai', 'Helvetica Neue', sans-serif" font-size="12" fill="#1B2733" text-anchor="start" font-weight="600">ระบบภายนอก</text>
  <rect x="150" y="190" width="140" height="26" rx="5" fill="#FFFFFF" stroke="#0E7C6B" stroke-width="1"/>
  <text x="220" y="207" font-family="Sarabun, 'Noto Sans Thai', 'Helvetica Neue', sans-serif" font-size="11" fill="#1B2733" text-anchor="middle">FastAPI :8000</text>
  <line x1="306" y1="203" x2="318" y2="203" stroke="#0E7C6B" stroke-width="1.3"/>
  <polygon points="326,203 317.0,198.2 317.0,207.8" fill="#0E7C6B"/>
  <rect x="332" y="190" width="74" height="26" rx="5" fill="#FBF0DC" stroke="#8A5A00" stroke-width="1"/>
  <text x="369" y="207" font-family="Sarabun, 'Noto Sans Thai', 'Helvetica Neue', sans-serif" font-size="11" fill="#8A5A00" text-anchor="middle">ฐานข้อมูล</text>
  <text x="56" y="228" font-family="Sarabun, 'Noto Sans Thai', 'Helvetica Neue', sans-serif" font-size="10.5" fill="#5B6B7A" text-anchor="start">ยืนยันตัวตน:</text>
  <text x="126" y="228" font-family="Menlo, Consolas, monospace" font-size="10.5" fill="#0E7C6B" text-anchor="start">API key — X-Api-Key: wmk_…</text>
  <text x="310" y="254" font-family="Sarabun, 'Noto Sans Thai', 'Helvetica Neue', sans-serif" font-size="11" fill="#5B6B7A" text-anchor="middle">คู่มือเล่มนี้พูดถึงช่องทาง B เป็นหลัก</text>
</svg>
